<svg xmlns="http://www.w3.org/2000/svg" xmlns:xlink="http://www.w3.org/1999/xlink" viewBox="0,0,256,256" width="100px" height="100px" fill-rule="nonzero"><g fill="#151f20" fill-rule="nonzero" stroke="none" stroke-width="1" stroke-linecap="butt" stroke-linejoin="miter" stroke-miterlimit="10" stroke-dasharray="" stroke-dashoffset="0" font-family="none" font-weight="none" font-size="none" text-anchor="none" style="mix-blend-mode: normal"><g transform="scale(8.53333,8.53333)"><path d="M24,4h-18c-1.105,0 -2,0.895 -2,2v18c0,1.105 0.895,2 2,2h18c1.105,0 2,-0.895 2,-2v-18c0,-1.105 -0.895,-2 -2,-2zM22.804,22c0,0 -0.877,-1.497 -2.347,-1.497c-1.417,0 -2.502,1.497 -5.355,1.497c-5.302,-0.001 -8.307,-3.944 -9.085,-5.172c-0.061,-0.097 0.053,-0.203 0.149,-0.142c2.255,1.422 4.436,2.115 5.946,2.114c2.21,-0.001 3.455,-1.066 3.455,-1.066c-2.035,-1.202 -6.91,-6.798 -7.948,-8.361c-0.072,-0.107 0.057,-0.225 0.156,-0.142c4.224,3.564 6.631,4.907 6.631,4.907c-0.894,-0.753 -3.556,-4.267 -4.663,-5.83c-0.075,-0.106 0.063,-0.228 0.157,-0.14c3.03,2.826 8.325,6.901 8.325,6.901c0.333,-0.94 0.544,-2.069 0.53,-2.932c-0.035,-2.277 -1.498,-4.546 -2.105,-5.434c-0.069,-0.1 0.056,-0.213 0.155,-0.142c3.945,2.843 5.141,6.393 5.141,8.441c-0.001,1.472 -0.532,2.399 -0.532,2.399c0,0 2.25,2.462 1.39,4.599z"></path></g></g></svg>